# xmcd CD database file
#
# Track frame offsets:
#	182
#	19167
#	39305
#	54570
#	70927
#	87660
#	100207
#	118777
#	141505
#	160985
#
# Disc length: 2757 seconds
#
# Revision: 1
# Processed by: cddbd v1.5.1PL0 Copyright (c) Steve Scherf et al.
# Submitted via: CDex 1.60beta1
#
DISCID=8d0ac30a
DTITLE=Mojo Collins - One Step Closer
DYEAR=1996
DGENRE=Blues
TTITLE0=Angel of Love
TTITLE1=One Step Closer
TTITLE2=Everything's Coming Up Blues
TTITLE3=Space Age Blues
TTITLE4=Buddy Boy
TTITLE5=X-Ray Vision
TTITLE6=Bluestown
TTITLE7=Take You Where You Wanna Go
TTITLE8=Love Rains Down
TTITLE9=Killer Brewe Trilogy
EXTD=YEAR: 1996
EXTT0=
EXTT1=
EXTT2=
EXTT3=
EXTT4=
EXTT5=
EXTT6=
EXTT7=
EXTT8=
EXTT9=
PLAYORDER=
